<svg width="18" height="19" viewBox="0 0 18 19" fill="none" xmlns="http://www.w3.org/2000/svg">
<path d="M9 2.30273C6.0975 2.30273 3.75 4.65023 3.75 7.55274C3.75 8.85774 4.125 10.0802 4.8075 11.1827C5.52 12.3377 6.4575 13.3277 7.1775 14.4827C7.53 15.0452 7.785 15.5702 8.055 16.1777C8.25 16.5902 8.4075 17.3027 9 17.3027C9.5925 17.3027 9.75 16.5902 9.9375 16.1777C10.215 15.5702 10.4625 15.0452 10.815 14.4827C11.535 13.3352 12.4725 12.3452 13.185 11.1827C13.875 10.0802 14.25 8.85774 14.25 7.55274C14.25 4.65023 11.9025 2.30273 9 2.30273ZM9 9.61524C7.965 9.61524 7.125 8.77524 7.125 7.74024C7.125 6.70524 7.965 5.86523 9 5.86523C10.035 5.86523 10.875 6.70524 10.875 7.74024C10.875 8.77524 10.035 9.61524 9 9.61524Z" fill="white"/>
</svg>
