<svg width="65" height="105" viewBox="0 0 65 105" fill="none" xmlns="http://www.w3.org/2000/svg">
<g opacity="0.3">
<mask id="mask0_557_1347" style="mask-type:alpha" maskUnits="userSpaceOnUse" x="0" y="0" width="10" height="10">
<path d="M4.73822 9.45196C7.35507 9.45196 9.47644 7.33603 9.47644 4.72595C9.47644 2.11587 7.35507 0 4.73822 0C2.12137 0 0 2.11587 0 4.72595C0 7.33603 2.12137 9.45196 4.73822 9.45196Z" fill="url(#paint0_linear_557_1347)"/>
</mask>
<g mask="url(#mask0_557_1347)">
<path d="M4.73822 9.45196C7.35507 9.45196 9.47644 7.33603 9.47644 4.72595C9.47644 2.11587 7.35507 0 4.73822 0C2.12137 0 0 2.11587 0 4.72595C0 7.33603 2.12137 9.45196 4.73822 9.45196Z" fill="url(#paint1_linear_557_1347)"/>
</g>
<mask id="mask1_557_1347" style="mask-type:alpha" maskUnits="userSpaceOnUse" x="27" y="0" width="10" height="10">
<path d="M32.1805 9.45196C34.7973 9.45196 36.9187 7.33603 36.9187 4.72595C36.9187 2.11587 34.7973 0 32.1805 0C29.5636 0 27.4423 2.11587 27.4423 4.72595C27.4423 7.33603 29.5636 9.45196 32.1805 9.45196Z" fill="url(#paint2_linear_557_1347)"/>
</mask>
<g mask="url(#mask1_557_1347)">
<path d="M32.1805 9.45196C34.7973 9.45196 36.9187 7.33603 36.9187 4.72595C36.9187 2.11587 34.7973 0 32.1805 0C29.5636 0 27.4423 2.11587 27.4423 4.72595C27.4423 7.33603 29.5636 9.45196 32.1805 9.45196Z" fill="url(#paint3_linear_557_1347)"/>
</g>
<mask id="mask2_557_1347" style="mask-type:alpha" maskUnits="userSpaceOnUse" x="54" y="0" width="11" height="10">
<path d="M59.6227 9.45196C62.2396 9.45196 64.361 7.33603 64.361 4.72595C64.361 2.11587 62.2396 0 59.6227 0C57.0059 0 54.8845 2.11587 54.8845 4.72595C54.8845 7.33603 57.0059 9.45196 59.6227 9.45196Z" fill="url(#paint4_linear_557_1347)"/>
</mask>
<g mask="url(#mask2_557_1347)">
<path d="M59.6227 9.45196C62.2396 9.45196 64.361 7.33603 64.361 4.72595C64.361 2.11587 62.2396 0 59.6227 0C57.0059 0 54.8845 2.11587 54.8845 4.72595C54.8845 7.33603 57.0059 9.45196 59.6227 9.45196Z" fill="url(#paint5_linear_557_1347)"/>
</g>
<mask id="mask3_557_1347" style="mask-type:alpha" maskUnits="userSpaceOnUse" x="0" y="23" width="10" height="11">
<path d="M4.73822 33.1804C7.35507 33.1804 9.47644 31.0645 9.47644 28.4545C9.47644 25.8444 7.35507 23.7285 4.73822 23.7285C2.12137 23.7285 0 25.8444 0 28.4545C0 31.0645 2.12137 33.1804 4.73822 33.1804Z" fill="url(#paint6_linear_557_1347)"/>
</mask>
<g mask="url(#mask3_557_1347)">
<path d="M4.73822 33.1804C7.35507 33.1804 9.47644 31.0645 9.47644 28.4545C9.47644 25.8444 7.35507 23.7285 4.73822 23.7285C2.12137 23.7285 0 25.8444 0 28.4545C0 31.0645 2.12137 33.1804 4.73822 33.1804Z" fill="url(#paint7_linear_557_1347)"/>
</g>
<mask id="mask4_557_1347" style="mask-type:alpha" maskUnits="userSpaceOnUse" x="27" y="23" width="10" height="11">
<path d="M32.1805 33.1804C34.7973 33.1804 36.9187 31.0645 36.9187 28.4545C36.9187 25.8444 34.7973 23.7285 32.1805 23.7285C29.5636 23.7285 27.4423 25.8444 27.4423 28.4545C27.4423 31.0645 29.5636 33.1804 32.1805 33.1804Z" fill="url(#paint8_linear_557_1347)"/>
</mask>
<g mask="url(#mask4_557_1347)">
<path d="M32.1805 33.1804C34.7973 33.1804 36.9187 31.0645 36.9187 28.4545C36.9187 25.8444 34.7973 23.7285 32.1805 23.7285C29.5636 23.7285 27.4423 25.8444 27.4423 28.4545C27.4423 31.0645 29.5636 33.1804 32.1805 33.1804Z" fill="url(#paint9_linear_557_1347)"/>
</g>
<mask id="mask5_557_1347" style="mask-type:alpha" maskUnits="userSpaceOnUse" x="54" y="23" width="11" height="11">
<path d="M59.6227 33.1804C62.2396 33.1804 64.361 31.0645 64.361 28.4545C64.361 25.8444 62.2396 23.7285 59.6227 23.7285C57.0059 23.7285 54.8845 25.8444 54.8845 28.4545C54.8845 31.0645 57.0059 33.1804 59.6227 33.1804Z" fill="url(#paint10_linear_557_1347)"/>
</mask>
<g mask="url(#mask5_557_1347)">
<path d="M59.6227 33.1804C62.2396 33.1804 64.361 31.0645 64.361 28.4545C64.361 25.8444 62.2396 23.7285 59.6227 23.7285C57.0059 23.7285 54.8845 25.8444 54.8845 28.4545C54.8845 31.0645 57.0059 33.1804 59.6227 33.1804Z" fill="url(#paint11_linear_557_1347)"/>
</g>
<mask id="mask6_557_1347" style="mask-type:alpha" maskUnits="userSpaceOnUse" x="0" y="47" width="10" height="10">
<path d="M4.73822 56.8592C7.35507 56.8592 9.47644 54.7433 9.47644 52.1332C9.47644 49.5231 7.35507 47.4072 4.73822 47.4072C2.12137 47.4072 0 49.5231 0 52.1332C0 54.7433 2.12137 56.8592 4.73822 56.8592Z" fill="url(#paint12_linear_557_1347)"/>
</mask>
<g mask="url(#mask6_557_1347)">
<path d="M4.73822 56.8592C7.35507 56.8592 9.47644 54.7433 9.47644 52.1332C9.47644 49.5231 7.35507 47.4072 4.73822 47.4072C2.12137 47.4072 0 49.5231 0 52.1332C0 54.7433 2.12137 56.8592 4.73822 56.8592Z" fill="url(#paint13_linear_557_1347)"/>
</g>
<mask id="mask7_557_1347" style="mask-type:alpha" maskUnits="userSpaceOnUse" x="27" y="47" width="10" height="10">
<path d="M32.1805 56.8592C34.7973 56.8592 36.9187 54.7433 36.9187 52.1332C36.9187 49.5231 34.7973 47.4072 32.1805 47.4072C29.5636 47.4072 27.4423 49.5231 27.4423 52.1332C27.4423 54.7433 29.5636 56.8592 32.1805 56.8592Z" fill="url(#paint14_linear_557_1347)"/>
</mask>
<g mask="url(#mask7_557_1347)">
<path d="M32.1805 56.8592C34.7973 56.8592 36.9187 54.7433 36.9187 52.1332C36.9187 49.5231 34.7973 47.4072 32.1805 47.4072C29.5636 47.4072 27.4423 49.5231 27.4423 52.1332C27.4423 54.7433 29.5636 56.8592 32.1805 56.8592Z" fill="url(#paint15_linear_557_1347)"/>
</g>
<mask id="mask8_557_1347" style="mask-type:alpha" maskUnits="userSpaceOnUse" x="54" y="47" width="11" height="10">
<path d="M59.6227 56.8592C62.2396 56.8592 64.361 54.7433 64.361 52.1332C64.361 49.5231 62.2396 47.4072 59.6227 47.4072C57.0059 47.4072 54.8845 49.5231 54.8845 52.1332C54.8845 54.7433 57.0059 56.8592 59.6227 56.8592Z" fill="url(#paint16_linear_557_1347)"/>
</mask>
<g mask="url(#mask8_557_1347)">
<path d="M59.6227 56.8592C62.2396 56.8592 64.361 54.7433 64.361 52.1332C64.361 49.5231 62.2396 47.4072 59.6227 47.4072C57.0059 47.4072 54.8845 49.5231 54.8845 52.1332C54.8845 54.7433 57.0059 56.8592 59.6227 56.8592Z" fill="url(#paint17_linear_557_1347)"/>
</g>
<mask id="mask9_557_1347" style="mask-type:alpha" maskUnits="userSpaceOnUse" x="0" y="71" width="10" height="10">
<path d="M4.73822 80.5877C7.35507 80.5877 9.47644 78.4718 9.47644 75.8617C9.47644 73.2516 7.35507 71.1357 4.73822 71.1357C2.12137 71.1357 0 73.2516 0 75.8617C0 78.4718 2.12137 80.5877 4.73822 80.5877Z" fill="url(#paint18_linear_557_1347)"/>
</mask>
<g mask="url(#mask9_557_1347)">
<path d="M4.73822 80.5877C7.35507 80.5877 9.47644 78.4718 9.47644 75.8617C9.47644 73.2516 7.35507 71.1357 4.73822 71.1357C2.12137 71.1357 0 73.2516 0 75.8617C0 78.4718 2.12137 80.5877 4.73822 80.5877Z" fill="url(#paint19_linear_557_1347)"/>
</g>
<mask id="mask10_557_1347" style="mask-type:alpha" maskUnits="userSpaceOnUse" x="27" y="71" width="10" height="10">
<path d="M32.1805 80.5877C34.7973 80.5877 36.9187 78.4718 36.9187 75.8617C36.9187 73.2516 34.7973 71.1357 32.1805 71.1357C29.5636 71.1357 27.4423 73.2516 27.4423 75.8617C27.4423 78.4718 29.5636 80.5877 32.1805 80.5877Z" fill="url(#paint20_linear_557_1347)"/>
</mask>
<g mask="url(#mask10_557_1347)">
<path d="M32.1805 80.5877C34.7973 80.5877 36.9187 78.4718 36.9187 75.8617C36.9187 73.2516 34.7973 71.1357 32.1805 71.1357C29.5636 71.1357 27.4423 73.2516 27.4423 75.8617C27.4423 78.4718 29.5636 80.5877 32.1805 80.5877Z" fill="url(#paint21_linear_557_1347)"/>
</g>
<mask id="mask11_557_1347" style="mask-type:alpha" maskUnits="userSpaceOnUse" x="54" y="71" width="11" height="10">
<path d="M59.6227 80.5877C62.2396 80.5877 64.361 78.4718 64.361 75.8617C64.361 73.2516 62.2396 71.1357 59.6227 71.1357C57.0059 71.1357 54.8845 73.2516 54.8845 75.8617C54.8845 78.4718 57.0059 80.5877 59.6227 80.5877Z" fill="url(#paint22_linear_557_1347)"/>
</mask>
<g mask="url(#mask11_557_1347)">
<path d="M59.6227 80.5877C62.2396 80.5877 64.361 78.4718 64.361 75.8617C64.361 73.2516 62.2396 71.1357 59.6227 71.1357C57.0059 71.1357 54.8845 73.2516 54.8845 75.8617C54.8845 78.4718 57.0059 80.5877 59.6227 80.5877Z" fill="url(#paint23_linear_557_1347)"/>
</g>
<mask id="mask12_557_1347" style="mask-type:alpha" maskUnits="userSpaceOnUse" x="0" y="94" width="10" height="11">
<path d="M4.73822 104.266C7.35507 104.266 9.47644 102.151 9.47644 99.5405C9.47644 96.9304 7.35507 94.8145 4.73822 94.8145C2.12137 94.8145 0 96.9304 0 99.5405C0 102.151 2.12137 104.266 4.73822 104.266Z" fill="url(#paint24_linear_557_1347)"/>
</mask>
<g mask="url(#mask12_557_1347)">
<path d="M4.73822 104.266C7.35507 104.266 9.47644 102.151 9.47644 99.5405C9.47644 96.9304 7.35507 94.8145 4.73822 94.8145C2.12137 94.8145 0 96.9304 0 99.5405C0 102.151 2.12137 104.266 4.73822 104.266Z" fill="url(#paint25_linear_557_1347)"/>
</g>
<mask id="mask13_557_1347" style="mask-type:alpha" maskUnits="userSpaceOnUse" x="27" y="94" width="10" height="11">
<path d="M32.1805 104.266C34.7973 104.266 36.9187 102.151 36.9187 99.5405C36.9187 96.9304 34.7973 94.8145 32.1805 94.8145C29.5636 94.8145 27.4423 96.9304 27.4423 99.5405C27.4423 102.151 29.5636 104.266 32.1805 104.266Z" fill="url(#paint26_linear_557_1347)"/>
</mask>
<g mask="url(#mask13_557_1347)">
<path d="M32.1805 104.266C34.7973 104.266 36.9187 102.151 36.9187 99.5405C36.9187 96.9304 34.7973 94.8145 32.1805 94.8145C29.5636 94.8145 27.4423 96.9304 27.4423 99.5405C27.4423 102.151 29.5636 104.266 32.1805 104.266Z" fill="url(#paint27_linear_557_1347)"/>
</g>
<mask id="mask14_557_1347" style="mask-type:alpha" maskUnits="userSpaceOnUse" x="54" y="94" width="11" height="11">
<path d="M59.6227 104.266C62.2396 104.266 64.361 102.151 64.361 99.5405C64.361 96.9304 62.2396 94.8145 59.6227 94.8145C57.0059 94.8145 54.8845 96.9304 54.8845 99.5405C54.8845 102.151 57.0059 104.266 59.6227 104.266Z" fill="url(#paint28_linear_557_1347)"/>
</mask>
<g mask="url(#mask14_557_1347)">
<path d="M59.6227 104.266C62.2396 104.266 64.361 102.151 64.361 99.5405C64.361 96.9304 62.2396 94.8145 59.6227 94.8145C57.0059 94.8145 54.8845 96.9304 54.8845 99.5405C54.8845 102.151 57.0059 104.266 59.6227 104.266Z" fill="url(#paint29_linear_557_1347)"/>
</g>
</g>
<defs>
<linearGradient id="paint0_linear_557_1347" x1="49.8401" y1="118.895" x2="-14.9192" y2="-45.9205" gradientUnits="userSpaceOnUse">
<stop/>
<stop offset="1" stop-color="white"/>
</linearGradient>
<linearGradient id="paint1_linear_557_1347" x1="49.8401" y1="118.895" x2="-14.9192" y2="-45.9205" gradientUnits="userSpaceOnUse">
<stop stop-color="#97C3F9"/>
<stop offset="1" stop-color="#93C1F9"/>
</linearGradient>
<linearGradient id="paint2_linear_557_1347" x1="73.588" y1="109.564" x2="8.82874" y2="-55.2513" gradientUnits="userSpaceOnUse">
<stop/>
<stop offset="1" stop-color="white"/>
</linearGradient>
<linearGradient id="paint3_linear_557_1347" x1="73.588" y1="109.564" x2="8.82874" y2="-55.2513" gradientUnits="userSpaceOnUse">
<stop stop-color="#97C3F9"/>
<stop offset="1" stop-color="#93C1F9"/>
</linearGradient>
<linearGradient id="paint4_linear_557_1347" x1="97.3358" y1="100.233" x2="32.5766" y2="-64.5821" gradientUnits="userSpaceOnUse">
<stop/>
<stop offset="1" stop-color="white"/>
</linearGradient>
<linearGradient id="paint5_linear_557_1347" x1="97.3358" y1="100.233" x2="32.5766" y2="-64.5821" gradientUnits="userSpaceOnUse">
<stop stop-color="#97C3F9"/>
<stop offset="1" stop-color="#93C1F9"/>
</linearGradient>
<linearGradient id="paint6_linear_557_1347" x1="41.7363" y1="122.079" x2="-23.0219" y2="-42.7353" gradientUnits="userSpaceOnUse">
<stop/>
<stop offset="1" stop-color="white"/>
</linearGradient>
<linearGradient id="paint7_linear_557_1347" x1="41.7363" y1="122.079" x2="-23.0219" y2="-42.7353" gradientUnits="userSpaceOnUse">
<stop stop-color="#97C3F9"/>
<stop offset="1" stop-color="#93C1F9"/>
</linearGradient>
<linearGradient id="paint8_linear_557_1347" x1="65.484" y1="112.747" x2="0.725794" y2="-52.0667" gradientUnits="userSpaceOnUse">
<stop/>
<stop offset="1" stop-color="white"/>
</linearGradient>
<linearGradient id="paint9_linear_557_1347" x1="65.484" y1="112.747" x2="0.725794" y2="-52.0667" gradientUnits="userSpaceOnUse">
<stop stop-color="#97C3F9"/>
<stop offset="1" stop-color="#93C1F9"/>
</linearGradient>
<linearGradient id="paint10_linear_557_1347" x1="89.2316" y1="103.416" x2="24.4735" y2="-61.3975" gradientUnits="userSpaceOnUse">
<stop/>
<stop offset="1" stop-color="white"/>
</linearGradient>
<linearGradient id="paint11_linear_557_1347" x1="89.2316" y1="103.416" x2="24.4735" y2="-61.3975" gradientUnits="userSpaceOnUse">
<stop stop-color="#97C3F9"/>
<stop offset="1" stop-color="#93C1F9"/>
</linearGradient>
<linearGradient id="paint12_linear_557_1347" x1="33.6321" y1="125.263" x2="-31.1272" y2="-39.552" gradientUnits="userSpaceOnUse">
<stop/>
<stop offset="1" stop-color="white"/>
</linearGradient>
<linearGradient id="paint13_linear_557_1347" x1="33.6321" y1="125.263" x2="-31.1272" y2="-39.552" gradientUnits="userSpaceOnUse">
<stop stop-color="#97C3F9"/>
<stop offset="1" stop-color="#93C1F9"/>
</linearGradient>
<linearGradient id="paint14_linear_557_1347" x1="57.3799" y1="115.932" x2="-7.37935" y2="-48.8831" gradientUnits="userSpaceOnUse">
<stop/>
<stop offset="1" stop-color="white"/>
</linearGradient>
<linearGradient id="paint15_linear_557_1347" x1="57.3799" y1="115.932" x2="-7.37935" y2="-48.8831" gradientUnits="userSpaceOnUse">
<stop stop-color="#97C3F9"/>
<stop offset="1" stop-color="#93C1F9"/>
</linearGradient>
<linearGradient id="paint16_linear_557_1347" x1="81.1276" y1="106.601" x2="16.3684" y2="-58.214" gradientUnits="userSpaceOnUse">
<stop/>
<stop offset="1" stop-color="white"/>
</linearGradient>
<linearGradient id="paint17_linear_557_1347" x1="81.1276" y1="106.601" x2="16.3684" y2="-58.214" gradientUnits="userSpaceOnUse">
<stop stop-color="#97C3F9"/>
<stop offset="1" stop-color="#93C1F9"/>
</linearGradient>
<linearGradient id="paint18_linear_557_1347" x1="25.5281" y1="128.448" x2="-39.2312" y2="-36.3677" gradientUnits="userSpaceOnUse">
<stop/>
<stop offset="1" stop-color="white"/>
</linearGradient>
<linearGradient id="paint19_linear_557_1347" x1="25.5281" y1="128.448" x2="-39.2312" y2="-36.3677" gradientUnits="userSpaceOnUse">
<stop stop-color="#97C3F9"/>
<stop offset="1" stop-color="#93C1F9"/>
</linearGradient>
<linearGradient id="paint20_linear_557_1347" x1="49.2759" y1="119.117" x2="-15.4834" y2="-45.6986" gradientUnits="userSpaceOnUse">
<stop/>
<stop offset="1" stop-color="white"/>
</linearGradient>
<linearGradient id="paint21_linear_557_1347" x1="49.2759" y1="119.117" x2="-15.4834" y2="-45.6986" gradientUnits="userSpaceOnUse">
<stop stop-color="#97C3F9"/>
<stop offset="1" stop-color="#93C1F9"/>
</linearGradient>
<linearGradient id="paint22_linear_557_1347" x1="73.0236" y1="109.786" x2="8.26437" y2="-55.0295" gradientUnits="userSpaceOnUse">
<stop/>
<stop offset="1" stop-color="white"/>
</linearGradient>
<linearGradient id="paint23_linear_557_1347" x1="73.0236" y1="109.786" x2="8.26437" y2="-55.0295" gradientUnits="userSpaceOnUse">
<stop stop-color="#97C3F9"/>
<stop offset="1" stop-color="#93C1F9"/>
</linearGradient>
<linearGradient id="paint24_linear_557_1347" x1="17.4241" y1="131.631" x2="-47.3352" y2="-33.1838" gradientUnits="userSpaceOnUse">
<stop/>
<stop offset="1" stop-color="white"/>
</linearGradient>
<linearGradient id="paint25_linear_557_1347" x1="17.4241" y1="131.631" x2="-47.3352" y2="-33.1838" gradientUnits="userSpaceOnUse">
<stop stop-color="#97C3F9"/>
<stop offset="1" stop-color="#93C1F9"/>
</linearGradient>
<linearGradient id="paint26_linear_557_1347" x1="41.1719" y1="122.3" x2="-23.5874" y2="-42.5148" gradientUnits="userSpaceOnUse">
<stop/>
<stop offset="1" stop-color="white"/>
</linearGradient>
<linearGradient id="paint27_linear_557_1347" x1="41.1719" y1="122.3" x2="-23.5874" y2="-42.5148" gradientUnits="userSpaceOnUse">
<stop stop-color="#97C3F9"/>
<stop offset="1" stop-color="#93C1F9"/>
</linearGradient>
<linearGradient id="paint28_linear_557_1347" x1="64.9196" y1="112.969" x2="0.160375" y2="-51.8456" gradientUnits="userSpaceOnUse">
<stop/>
<stop offset="1" stop-color="white"/>
</linearGradient>
<linearGradient id="paint29_linear_557_1347" x1="64.9196" y1="112.969" x2="0.160375" y2="-51.8456" gradientUnits="userSpaceOnUse">
<stop stop-color="#97C3F9"/>
<stop offset="1" stop-color="#93C1F9"/>
</linearGradient>
</defs>
</svg>
