<svg width="120" height="105" viewBox="0 0 120 105" fill="none" xmlns="http://www.w3.org/2000/svg">
<g opacity="0.3">
<mask id="mask0_535_1294" style="mask-type:alpha" maskUnits="userSpaceOnUse" x="0" y="0" width="10" height="10">
<path d="M4.73822 9.45196C7.35507 9.45196 9.47644 7.33603 9.47644 4.72595C9.47644 2.11587 7.35507 0 4.73822 0C2.12137 0 0 2.11587 0 4.72595C0 7.33603 2.12137 9.45196 4.73822 9.45196Z" fill="url(#paint0_linear_535_1294)"/>
</mask>
<g mask="url(#mask0_535_1294)">
<path d="M4.73822 9.45196C7.35507 9.45196 9.47644 7.33603 9.47644 4.72595C9.47644 2.11587 7.35507 0 4.73822 0C2.12137 0 0 2.11587 0 4.72595C0 7.33603 2.12137 9.45196 4.73822 9.45196Z" fill="url(#paint1_linear_535_1294)"/>
</g>
<mask id="mask1_535_1294" style="mask-type:alpha" maskUnits="userSpaceOnUse" x="27" y="0" width="10" height="10">
<path d="M32.1805 9.45196C34.7973 9.45196 36.9187 7.33603 36.9187 4.72595C36.9187 2.11587 34.7973 0 32.1805 0C29.5636 0 27.4423 2.11587 27.4423 4.72595C27.4423 7.33603 29.5636 9.45196 32.1805 9.45196Z" fill="url(#paint2_linear_535_1294)"/>
</mask>
<g mask="url(#mask1_535_1294)">
<path d="M32.1805 9.45196C34.7973 9.45196 36.9187 7.33603 36.9187 4.72595C36.9187 2.11587 34.7973 0 32.1805 0C29.5636 0 27.4423 2.11587 27.4423 4.72595C27.4423 7.33603 29.5636 9.45196 32.1805 9.45196Z" fill="url(#paint3_linear_535_1294)"/>
</g>
<mask id="mask2_535_1294" style="mask-type:alpha" maskUnits="userSpaceOnUse" x="54" y="0" width="11" height="10">
<path d="M59.6226 9.45196C62.2395 9.45196 64.3609 7.33603 64.3609 4.72595C64.3609 2.11587 62.2395 0 59.6226 0C57.0058 0 54.8844 2.11587 54.8844 4.72595C54.8844 7.33603 57.0058 9.45196 59.6226 9.45196Z" fill="url(#paint4_linear_535_1294)"/>
</mask>
<g mask="url(#mask2_535_1294)">
<path d="M59.6226 9.45196C62.2395 9.45196 64.3609 7.33603 64.3609 4.72595C64.3609 2.11587 62.2395 0 59.6226 0C57.0058 0 54.8844 2.11587 54.8844 4.72595C54.8844 7.33603 57.0058 9.45196 59.6226 9.45196Z" fill="url(#paint5_linear_535_1294)"/>
</g>
<mask id="mask3_535_1294" style="mask-type:alpha" maskUnits="userSpaceOnUse" x="82" y="0" width="10" height="10">
<path d="M87.0649 9.45196C89.6817 9.45196 91.8031 7.33603 91.8031 4.72595C91.8031 2.11587 89.6817 0 87.0649 0C84.448 0 82.3267 2.11587 82.3267 4.72595C82.3267 7.33603 84.448 9.45196 87.0649 9.45196Z" fill="url(#paint6_linear_535_1294)"/>
</mask>
<g mask="url(#mask3_535_1294)">
<path d="M87.0649 9.45196C89.6817 9.45196 91.8031 7.33603 91.8031 4.72595C91.8031 2.11587 89.6817 0 87.0649 0C84.448 0 82.3267 2.11587 82.3267 4.72595C82.3267 7.33603 84.448 9.45196 87.0649 9.45196Z" fill="url(#paint7_linear_535_1294)"/>
</g>
<mask id="mask4_535_1294" style="mask-type:alpha" maskUnits="userSpaceOnUse" x="109" y="0" width="11" height="10">
<path d="M114.507 9.45196C117.124 9.45196 119.245 7.33603 119.245 4.72595C119.245 2.11587 117.124 0 114.507 0C111.89 0 109.769 2.11587 109.769 4.72595C109.769 7.33603 111.89 9.45196 114.507 9.45196Z" fill="url(#paint8_linear_535_1294)"/>
</mask>
<g mask="url(#mask4_535_1294)">
<path d="M114.507 9.45196C117.124 9.45196 119.245 7.33603 119.245 4.72595C119.245 2.11587 117.124 0 114.507 0C111.89 0 109.769 2.11587 109.769 4.72595C109.769 7.33603 111.89 9.45196 114.507 9.45196Z" fill="url(#paint9_linear_535_1294)"/>
</g>
<mask id="mask5_535_1294" style="mask-type:alpha" maskUnits="userSpaceOnUse" x="0" y="23" width="10" height="11">
<path d="M4.73822 33.1804C7.35507 33.1804 9.47644 31.0645 9.47644 28.4545C9.47644 25.8444 7.35507 23.7285 4.73822 23.7285C2.12137 23.7285 0 25.8444 0 28.4545C0 31.0645 2.12137 33.1804 4.73822 33.1804Z" fill="url(#paint10_linear_535_1294)"/>
</mask>
<g mask="url(#mask5_535_1294)">
<path d="M4.73822 33.1804C7.35507 33.1804 9.47644 31.0645 9.47644 28.4545C9.47644 25.8444 7.35507 23.7285 4.73822 23.7285C2.12137 23.7285 0 25.8444 0 28.4545C0 31.0645 2.12137 33.1804 4.73822 33.1804Z" fill="url(#paint11_linear_535_1294)"/>
</g>
<mask id="mask6_535_1294" style="mask-type:alpha" maskUnits="userSpaceOnUse" x="27" y="23" width="10" height="11">
<path d="M32.1805 33.1804C34.7973 33.1804 36.9187 31.0645 36.9187 28.4545C36.9187 25.8444 34.7973 23.7285 32.1805 23.7285C29.5636 23.7285 27.4423 25.8444 27.4423 28.4545C27.4423 31.0645 29.5636 33.1804 32.1805 33.1804Z" fill="url(#paint12_linear_535_1294)"/>
</mask>
<g mask="url(#mask6_535_1294)">
<path d="M32.1805 33.1804C34.7973 33.1804 36.9187 31.0645 36.9187 28.4545C36.9187 25.8444 34.7973 23.7285 32.1805 23.7285C29.5636 23.7285 27.4423 25.8444 27.4423 28.4545C27.4423 31.0645 29.5636 33.1804 32.1805 33.1804Z" fill="url(#paint13_linear_535_1294)"/>
</g>
<mask id="mask7_535_1294" style="mask-type:alpha" maskUnits="userSpaceOnUse" x="54" y="23" width="11" height="11">
<path d="M59.6226 33.1804C62.2395 33.1804 64.3609 31.0645 64.3609 28.4545C64.3609 25.8444 62.2395 23.7285 59.6226 23.7285C57.0058 23.7285 54.8844 25.8444 54.8844 28.4545C54.8844 31.0645 57.0058 33.1804 59.6226 33.1804Z" fill="url(#paint14_linear_535_1294)"/>
</mask>
<g mask="url(#mask7_535_1294)">
<path d="M59.6226 33.1804C62.2395 33.1804 64.3609 31.0645 64.3609 28.4545C64.3609 25.8444 62.2395 23.7285 59.6226 23.7285C57.0058 23.7285 54.8844 25.8444 54.8844 28.4545C54.8844 31.0645 57.0058 33.1804 59.6226 33.1804Z" fill="url(#paint15_linear_535_1294)"/>
</g>
<mask id="mask8_535_1294" style="mask-type:alpha" maskUnits="userSpaceOnUse" x="82" y="23" width="10" height="11">
<path d="M87.0649 33.1804C89.6817 33.1804 91.8031 31.0645 91.8031 28.4545C91.8031 25.8444 89.6817 23.7285 87.0649 23.7285C84.448 23.7285 82.3267 25.8444 82.3267 28.4545C82.3267 31.0645 84.448 33.1804 87.0649 33.1804Z" fill="url(#paint16_linear_535_1294)"/>
</mask>
<g mask="url(#mask8_535_1294)">
<path d="M87.0649 33.1804C89.6817 33.1804 91.8031 31.0645 91.8031 28.4545C91.8031 25.8444 89.6817 23.7285 87.0649 23.7285C84.448 23.7285 82.3267 25.8444 82.3267 28.4545C82.3267 31.0645 84.448 33.1804 87.0649 33.1804Z" fill="url(#paint17_linear_535_1294)"/>
</g>
<mask id="mask9_535_1294" style="mask-type:alpha" maskUnits="userSpaceOnUse" x="109" y="23" width="11" height="11">
<path d="M114.507 33.1804C117.124 33.1804 119.245 31.0645 119.245 28.4545C119.245 25.8444 117.124 23.7285 114.507 23.7285C111.89 23.7285 109.769 25.8444 109.769 28.4545C109.769 31.0645 111.89 33.1804 114.507 33.1804Z" fill="url(#paint18_linear_535_1294)"/>
</mask>
<g mask="url(#mask9_535_1294)">
<path d="M114.507 33.1804C117.124 33.1804 119.245 31.0645 119.245 28.4545C119.245 25.8444 117.124 23.7285 114.507 23.7285C111.89 23.7285 109.769 25.8444 109.769 28.4545C109.769 31.0645 111.89 33.1804 114.507 33.1804Z" fill="url(#paint19_linear_535_1294)"/>
</g>
<mask id="mask10_535_1294" style="mask-type:alpha" maskUnits="userSpaceOnUse" x="0" y="47" width="10" height="10">
<path d="M4.73822 56.8592C7.35507 56.8592 9.47644 54.7433 9.47644 52.1332C9.47644 49.5231 7.35507 47.4072 4.73822 47.4072C2.12137 47.4072 0 49.5231 0 52.1332C0 54.7433 2.12137 56.8592 4.73822 56.8592Z" fill="url(#paint20_linear_535_1294)"/>
</mask>
<g mask="url(#mask10_535_1294)">
<path d="M4.73822 56.8592C7.35507 56.8592 9.47644 54.7433 9.47644 52.1332C9.47644 49.5231 7.35507 47.4072 4.73822 47.4072C2.12137 47.4072 0 49.5231 0 52.1332C0 54.7433 2.12137 56.8592 4.73822 56.8592Z" fill="url(#paint21_linear_535_1294)"/>
</g>
<mask id="mask11_535_1294" style="mask-type:alpha" maskUnits="userSpaceOnUse" x="27" y="47" width="10" height="10">
<path d="M32.1805 56.8592C34.7973 56.8592 36.9187 54.7433 36.9187 52.1332C36.9187 49.5231 34.7973 47.4072 32.1805 47.4072C29.5636 47.4072 27.4423 49.5231 27.4423 52.1332C27.4423 54.7433 29.5636 56.8592 32.1805 56.8592Z" fill="url(#paint22_linear_535_1294)"/>
</mask>
<g mask="url(#mask11_535_1294)">
<path d="M32.1805 56.8592C34.7973 56.8592 36.9187 54.7433 36.9187 52.1332C36.9187 49.5231 34.7973 47.4072 32.1805 47.4072C29.5636 47.4072 27.4423 49.5231 27.4423 52.1332C27.4423 54.7433 29.5636 56.8592 32.1805 56.8592Z" fill="url(#paint23_linear_535_1294)"/>
</g>
<mask id="mask12_535_1294" style="mask-type:alpha" maskUnits="userSpaceOnUse" x="54" y="47" width="11" height="10">
<path d="M59.6226 56.8592C62.2395 56.8592 64.3609 54.7433 64.3609 52.1332C64.3609 49.5231 62.2395 47.4072 59.6226 47.4072C57.0058 47.4072 54.8844 49.5231 54.8844 52.1332C54.8844 54.7433 57.0058 56.8592 59.6226 56.8592Z" fill="url(#paint24_linear_535_1294)"/>
</mask>
<g mask="url(#mask12_535_1294)">
<path d="M59.6226 56.8592C62.2395 56.8592 64.3609 54.7433 64.3609 52.1332C64.3609 49.5231 62.2395 47.4072 59.6226 47.4072C57.0058 47.4072 54.8844 49.5231 54.8844 52.1332C54.8844 54.7433 57.0058 56.8592 59.6226 56.8592Z" fill="url(#paint25_linear_535_1294)"/>
</g>
<mask id="mask13_535_1294" style="mask-type:alpha" maskUnits="userSpaceOnUse" x="82" y="47" width="10" height="10">
<path d="M87.0649 56.8592C89.6817 56.8592 91.8031 54.7433 91.8031 52.1332C91.8031 49.5231 89.6817 47.4072 87.0649 47.4072C84.448 47.4072 82.3267 49.5231 82.3267 52.1332C82.3267 54.7433 84.448 56.8592 87.0649 56.8592Z" fill="url(#paint26_linear_535_1294)"/>
</mask>
<g mask="url(#mask13_535_1294)">
<path d="M87.0649 56.8592C89.6817 56.8592 91.8031 54.7433 91.8031 52.1332C91.8031 49.5231 89.6817 47.4072 87.0649 47.4072C84.448 47.4072 82.3267 49.5231 82.3267 52.1332C82.3267 54.7433 84.448 56.8592 87.0649 56.8592Z" fill="url(#paint27_linear_535_1294)"/>
</g>
<mask id="mask14_535_1294" style="mask-type:alpha" maskUnits="userSpaceOnUse" x="109" y="47" width="11" height="10">
<path d="M114.507 56.8592C117.124 56.8592 119.245 54.7433 119.245 52.1332C119.245 49.5231 117.124 47.4072 114.507 47.4072C111.89 47.4072 109.769 49.5231 109.769 52.1332C109.769 54.7433 111.89 56.8592 114.507 56.8592Z" fill="url(#paint28_linear_535_1294)"/>
</mask>
<g mask="url(#mask14_535_1294)">
<path d="M114.507 56.8592C117.124 56.8592 119.245 54.7433 119.245 52.1332C119.245 49.5231 117.124 47.4072 114.507 47.4072C111.89 47.4072 109.769 49.5231 109.769 52.1332C109.769 54.7433 111.89 56.8592 114.507 56.8592Z" fill="url(#paint29_linear_535_1294)"/>
</g>
<mask id="mask15_535_1294" style="mask-type:alpha" maskUnits="userSpaceOnUse" x="0" y="71" width="10" height="10">
<path d="M4.73822 80.5877C7.35507 80.5877 9.47644 78.4718 9.47644 75.8617C9.47644 73.2516 7.35507 71.1357 4.73822 71.1357C2.12137 71.1357 0 73.2516 0 75.8617C0 78.4718 2.12137 80.5877 4.73822 80.5877Z" fill="url(#paint30_linear_535_1294)"/>
</mask>
<g mask="url(#mask15_535_1294)">
<path d="M4.73822 80.5877C7.35507 80.5877 9.47644 78.4718 9.47644 75.8617C9.47644 73.2516 7.35507 71.1357 4.73822 71.1357C2.12137 71.1357 0 73.2516 0 75.8617C0 78.4718 2.12137 80.5877 4.73822 80.5877Z" fill="url(#paint31_linear_535_1294)"/>
</g>
<mask id="mask16_535_1294" style="mask-type:alpha" maskUnits="userSpaceOnUse" x="27" y="71" width="10" height="10">
<path d="M32.1805 80.5877C34.7973 80.5877 36.9187 78.4718 36.9187 75.8617C36.9187 73.2516 34.7973 71.1357 32.1805 71.1357C29.5636 71.1357 27.4423 73.2516 27.4423 75.8617C27.4423 78.4718 29.5636 80.5877 32.1805 80.5877Z" fill="url(#paint32_linear_535_1294)"/>
</mask>
<g mask="url(#mask16_535_1294)">
<path d="M32.1805 80.5877C34.7973 80.5877 36.9187 78.4718 36.9187 75.8617C36.9187 73.2516 34.7973 71.1357 32.1805 71.1357C29.5636 71.1357 27.4423 73.2516 27.4423 75.8617C27.4423 78.4718 29.5636 80.5877 32.1805 80.5877Z" fill="url(#paint33_linear_535_1294)"/>
</g>
<mask id="mask17_535_1294" style="mask-type:alpha" maskUnits="userSpaceOnUse" x="54" y="71" width="11" height="10">
<path d="M59.6226 80.5877C62.2395 80.5877 64.3609 78.4718 64.3609 75.8617C64.3609 73.2516 62.2395 71.1357 59.6226 71.1357C57.0058 71.1357 54.8844 73.2516 54.8844 75.8617C54.8844 78.4718 57.0058 80.5877 59.6226 80.5877Z" fill="url(#paint34_linear_535_1294)"/>
</mask>
<g mask="url(#mask17_535_1294)">
<path d="M59.6226 80.5877C62.2395 80.5877 64.3609 78.4718 64.3609 75.8617C64.3609 73.2516 62.2395 71.1357 59.6226 71.1357C57.0058 71.1357 54.8844 73.2516 54.8844 75.8617C54.8844 78.4718 57.0058 80.5877 59.6226 80.5877Z" fill="url(#paint35_linear_535_1294)"/>
</g>
<mask id="mask18_535_1294" style="mask-type:alpha" maskUnits="userSpaceOnUse" x="82" y="71" width="10" height="10">
<path d="M87.0649 80.5877C89.6817 80.5877 91.8031 78.4718 91.8031 75.8617C91.8031 73.2516 89.6817 71.1357 87.0649 71.1357C84.448 71.1357 82.3267 73.2516 82.3267 75.8617C82.3267 78.4718 84.448 80.5877 87.0649 80.5877Z" fill="url(#paint36_linear_535_1294)"/>
</mask>
<g mask="url(#mask18_535_1294)">
<path d="M87.0649 80.5877C89.6817 80.5877 91.8031 78.4718 91.8031 75.8617C91.8031 73.2516 89.6817 71.1357 87.0649 71.1357C84.448 71.1357 82.3267 73.2516 82.3267 75.8617C82.3267 78.4718 84.448 80.5877 87.0649 80.5877Z" fill="url(#paint37_linear_535_1294)"/>
</g>
<mask id="mask19_535_1294" style="mask-type:alpha" maskUnits="userSpaceOnUse" x="109" y="71" width="11" height="10">
<path d="M114.507 80.5877C117.124 80.5877 119.245 78.4718 119.245 75.8617C119.245 73.2516 117.124 71.1357 114.507 71.1357C111.89 71.1357 109.769 73.2516 109.769 75.8617C109.769 78.4718 111.89 80.5877 114.507 80.5877Z" fill="url(#paint38_linear_535_1294)"/>
</mask>
<g mask="url(#mask19_535_1294)">
<path d="M114.507 80.5877C117.124 80.5877 119.245 78.4718 119.245 75.8617C119.245 73.2516 117.124 71.1357 114.507 71.1357C111.89 71.1357 109.769 73.2516 109.769 75.8617C109.769 78.4718 111.89 80.5877 114.507 80.5877Z" fill="url(#paint39_linear_535_1294)"/>
</g>
<mask id="mask20_535_1294" style="mask-type:alpha" maskUnits="userSpaceOnUse" x="0" y="94" width="10" height="11">
<path d="M4.73822 104.266C7.35507 104.266 9.47644 102.151 9.47644 99.5405C9.47644 96.9304 7.35507 94.8145 4.73822 94.8145C2.12137 94.8145 0 96.9304 0 99.5405C0 102.151 2.12137 104.266 4.73822 104.266Z" fill="url(#paint40_linear_535_1294)"/>
</mask>
<g mask="url(#mask20_535_1294)">
<path d="M4.73822 104.266C7.35507 104.266 9.47644 102.151 9.47644 99.5405C9.47644 96.9304 7.35507 94.8145 4.73822 94.8145C2.12137 94.8145 0 96.9304 0 99.5405C0 102.151 2.12137 104.266 4.73822 104.266Z" fill="url(#paint41_linear_535_1294)"/>
</g>
<mask id="mask21_535_1294" style="mask-type:alpha" maskUnits="userSpaceOnUse" x="27" y="94" width="10" height="11">
<path d="M32.1805 104.266C34.7973 104.266 36.9187 102.151 36.9187 99.5405C36.9187 96.9304 34.7973 94.8145 32.1805 94.8145C29.5636 94.8145 27.4423 96.9304 27.4423 99.5405C27.4423 102.151 29.5636 104.266 32.1805 104.266Z" fill="url(#paint42_linear_535_1294)"/>
</mask>
<g mask="url(#mask21_535_1294)">
<path d="M32.1805 104.266C34.7973 104.266 36.9187 102.151 36.9187 99.5405C36.9187 96.9304 34.7973 94.8145 32.1805 94.8145C29.5636 94.8145 27.4423 96.9304 27.4423 99.5405C27.4423 102.151 29.5636 104.266 32.1805 104.266Z" fill="url(#paint43_linear_535_1294)"/>
</g>
<mask id="mask22_535_1294" style="mask-type:alpha" maskUnits="userSpaceOnUse" x="54" y="94" width="11" height="11">
<path d="M59.6226 104.266C62.2395 104.266 64.3609 102.151 64.3609 99.5405C64.3609 96.9304 62.2395 94.8145 59.6226 94.8145C57.0058 94.8145 54.8844 96.9304 54.8844 99.5405C54.8844 102.151 57.0058 104.266 59.6226 104.266Z" fill="url(#paint44_linear_535_1294)"/>
</mask>
<g mask="url(#mask22_535_1294)">
<path d="M59.6226 104.266C62.2395 104.266 64.3609 102.151 64.3609 99.5405C64.3609 96.9304 62.2395 94.8145 59.6226 94.8145C57.0058 94.8145 54.8844 96.9304 54.8844 99.5405C54.8844 102.151 57.0058 104.266 59.6226 104.266Z" fill="url(#paint45_linear_535_1294)"/>
</g>
<mask id="mask23_535_1294" style="mask-type:alpha" maskUnits="userSpaceOnUse" x="82" y="94" width="10" height="11">
<path d="M87.0649 104.266C89.6817 104.266 91.8031 102.151 91.8031 99.5405C91.8031 96.9304 89.6817 94.8145 87.0649 94.8145C84.448 94.8145 82.3267 96.9304 82.3267 99.5405C82.3267 102.151 84.448 104.266 87.0649 104.266Z" fill="url(#paint46_linear_535_1294)"/>
</mask>
<g mask="url(#mask23_535_1294)">
<path d="M87.0649 104.266C89.6817 104.266 91.8031 102.151 91.8031 99.5405C91.8031 96.9304 89.6817 94.8145 87.0649 94.8145C84.448 94.8145 82.3267 96.9304 82.3267 99.5405C82.3267 102.151 84.448 104.266 87.0649 104.266Z" fill="url(#paint47_linear_535_1294)"/>
</g>
<mask id="mask24_535_1294" style="mask-type:alpha" maskUnits="userSpaceOnUse" x="109" y="94" width="11" height="11">
<path d="M114.507 104.266C117.124 104.266 119.245 102.151 119.245 99.5405C119.245 96.9304 117.124 94.8145 114.507 94.8145C111.89 94.8145 109.769 96.9304 109.769 99.5405C109.769 102.151 111.89 104.266 114.507 104.266Z" fill="url(#paint48_linear_535_1294)"/>
</mask>
<g mask="url(#mask24_535_1294)">
<path d="M114.507 104.266C117.124 104.266 119.245 102.151 119.245 99.5405C119.245 96.9304 117.124 94.8145 114.507 94.8145C111.89 94.8145 109.769 96.9304 109.769 99.5405C109.769 102.151 111.89 104.266 114.507 104.266Z" fill="url(#paint49_linear_535_1294)"/>
</g>
</g>
<defs>
<linearGradient id="paint0_linear_535_1294" x1="49.8401" y1="118.895" x2="-14.9192" y2="-45.9205" gradientUnits="userSpaceOnUse">
<stop/>
<stop offset="1" stop-color="white"/>
</linearGradient>
<linearGradient id="paint1_linear_535_1294" x1="49.8401" y1="118.895" x2="-14.9192" y2="-45.9205" gradientUnits="userSpaceOnUse">
<stop stop-color="#97C3F9"/>
<stop offset="1" stop-color="#93C1F9"/>
</linearGradient>
<linearGradient id="paint2_linear_535_1294" x1="73.588" y1="109.564" x2="8.82874" y2="-55.2513" gradientUnits="userSpaceOnUse">
<stop/>
<stop offset="1" stop-color="white"/>
</linearGradient>
<linearGradient id="paint3_linear_535_1294" x1="73.588" y1="109.564" x2="8.82874" y2="-55.2513" gradientUnits="userSpaceOnUse">
<stop stop-color="#97C3F9"/>
<stop offset="1" stop-color="#93C1F9"/>
</linearGradient>
<linearGradient id="paint4_linear_535_1294" x1="97.3357" y1="100.233" x2="32.5764" y2="-64.5821" gradientUnits="userSpaceOnUse">
<stop/>
<stop offset="1" stop-color="white"/>
</linearGradient>
<linearGradient id="paint5_linear_535_1294" x1="97.3357" y1="100.233" x2="32.5764" y2="-64.5821" gradientUnits="userSpaceOnUse">
<stop stop-color="#97C3F9"/>
<stop offset="1" stop-color="#93C1F9"/>
</linearGradient>
<linearGradient id="paint6_linear_535_1294" x1="121.083" y1="90.9019" x2="56.324" y2="-73.9134" gradientUnits="userSpaceOnUse">
<stop/>
<stop offset="1" stop-color="white"/>
</linearGradient>
<linearGradient id="paint7_linear_535_1294" x1="121.083" y1="90.9019" x2="56.324" y2="-73.9134" gradientUnits="userSpaceOnUse">
<stop stop-color="#97C3F9"/>
<stop offset="1" stop-color="#93C1F9"/>
</linearGradient>
<linearGradient id="paint8_linear_535_1294" x1="144.831" y1="81.5709" x2="80.0716" y2="-83.2443" gradientUnits="userSpaceOnUse">
<stop/>
<stop offset="1" stop-color="white"/>
</linearGradient>
<linearGradient id="paint9_linear_535_1294" x1="144.831" y1="81.5709" x2="80.0716" y2="-83.2443" gradientUnits="userSpaceOnUse">
<stop stop-color="#97C3F9"/>
<stop offset="1" stop-color="#93C1F9"/>
</linearGradient>
<linearGradient id="paint10_linear_535_1294" x1="41.7363" y1="122.079" x2="-23.0219" y2="-42.7353" gradientUnits="userSpaceOnUse">
<stop/>
<stop offset="1" stop-color="white"/>
</linearGradient>
<linearGradient id="paint11_linear_535_1294" x1="41.7363" y1="122.079" x2="-23.0219" y2="-42.7353" gradientUnits="userSpaceOnUse">
<stop stop-color="#97C3F9"/>
<stop offset="1" stop-color="#93C1F9"/>
</linearGradient>
<linearGradient id="paint12_linear_535_1294" x1="65.484" y1="112.747" x2="0.725794" y2="-52.0667" gradientUnits="userSpaceOnUse">
<stop/>
<stop offset="1" stop-color="white"/>
</linearGradient>
<linearGradient id="paint13_linear_535_1294" x1="65.484" y1="112.747" x2="0.725794" y2="-52.0667" gradientUnits="userSpaceOnUse">
<stop stop-color="#97C3F9"/>
<stop offset="1" stop-color="#93C1F9"/>
</linearGradient>
<linearGradient id="paint14_linear_535_1294" x1="89.2315" y1="103.416" x2="24.4734" y2="-61.3975" gradientUnits="userSpaceOnUse">
<stop/>
<stop offset="1" stop-color="white"/>
</linearGradient>
<linearGradient id="paint15_linear_535_1294" x1="89.2315" y1="103.416" x2="24.4734" y2="-61.3975" gradientUnits="userSpaceOnUse">
<stop stop-color="#97C3F9"/>
<stop offset="1" stop-color="#93C1F9"/>
</linearGradient>
<linearGradient id="paint16_linear_535_1294" x1="112.979" y1="94.0857" x2="48.2211" y2="-70.7284" gradientUnits="userSpaceOnUse">
<stop/>
<stop offset="1" stop-color="white"/>
</linearGradient>
<linearGradient id="paint17_linear_535_1294" x1="112.979" y1="94.0857" x2="48.2211" y2="-70.7284" gradientUnits="userSpaceOnUse">
<stop stop-color="#97C3F9"/>
<stop offset="1" stop-color="#93C1F9"/>
</linearGradient>
<linearGradient id="paint18_linear_535_1294" x1="136.727" y1="84.7548" x2="71.9687" y2="-80.0592" gradientUnits="userSpaceOnUse">
<stop/>
<stop offset="1" stop-color="white"/>
</linearGradient>
<linearGradient id="paint19_linear_535_1294" x1="136.727" y1="84.7548" x2="71.9687" y2="-80.0592" gradientUnits="userSpaceOnUse">
<stop stop-color="#97C3F9"/>
<stop offset="1" stop-color="#93C1F9"/>
</linearGradient>
<linearGradient id="paint20_linear_535_1294" x1="33.6321" y1="125.263" x2="-31.1272" y2="-39.552" gradientUnits="userSpaceOnUse">
<stop/>
<stop offset="1" stop-color="white"/>
</linearGradient>
<linearGradient id="paint21_linear_535_1294" x1="33.6321" y1="125.263" x2="-31.1272" y2="-39.552" gradientUnits="userSpaceOnUse">
<stop stop-color="#97C3F9"/>
<stop offset="1" stop-color="#93C1F9"/>
</linearGradient>
<linearGradient id="paint22_linear_535_1294" x1="57.3799" y1="115.932" x2="-7.37935" y2="-48.8831" gradientUnits="userSpaceOnUse">
<stop/>
<stop offset="1" stop-color="white"/>
</linearGradient>
<linearGradient id="paint23_linear_535_1294" x1="57.3799" y1="115.932" x2="-7.37935" y2="-48.8831" gradientUnits="userSpaceOnUse">
<stop stop-color="#97C3F9"/>
<stop offset="1" stop-color="#93C1F9"/>
</linearGradient>
<linearGradient id="paint24_linear_535_1294" x1="81.1275" y1="106.601" x2="16.3683" y2="-58.214" gradientUnits="userSpaceOnUse">
<stop/>
<stop offset="1" stop-color="white"/>
</linearGradient>
<linearGradient id="paint25_linear_535_1294" x1="81.1275" y1="106.601" x2="16.3683" y2="-58.214" gradientUnits="userSpaceOnUse">
<stop stop-color="#97C3F9"/>
<stop offset="1" stop-color="#93C1F9"/>
</linearGradient>
<linearGradient id="paint26_linear_535_1294" x1="104.875" y1="97.2701" x2="40.1159" y2="-67.5451" gradientUnits="userSpaceOnUse">
<stop/>
<stop offset="1" stop-color="white"/>
</linearGradient>
<linearGradient id="paint27_linear_535_1294" x1="104.875" y1="97.2701" x2="40.1159" y2="-67.5451" gradientUnits="userSpaceOnUse">
<stop stop-color="#97C3F9"/>
<stop offset="1" stop-color="#93C1F9"/>
</linearGradient>
<linearGradient id="paint28_linear_535_1294" x1="128.623" y1="87.9392" x2="63.8635" y2="-76.876" gradientUnits="userSpaceOnUse">
<stop/>
<stop offset="1" stop-color="white"/>
</linearGradient>
<linearGradient id="paint29_linear_535_1294" x1="128.623" y1="87.9392" x2="63.8635" y2="-76.876" gradientUnits="userSpaceOnUse">
<stop stop-color="#97C3F9"/>
<stop offset="1" stop-color="#93C1F9"/>
</linearGradient>
<linearGradient id="paint30_linear_535_1294" x1="25.5281" y1="128.448" x2="-39.2312" y2="-36.3677" gradientUnits="userSpaceOnUse">
<stop/>
<stop offset="1" stop-color="white"/>
</linearGradient>
<linearGradient id="paint31_linear_535_1294" x1="25.5281" y1="128.448" x2="-39.2312" y2="-36.3677" gradientUnits="userSpaceOnUse">
<stop stop-color="#97C3F9"/>
<stop offset="1" stop-color="#93C1F9"/>
</linearGradient>
<linearGradient id="paint32_linear_535_1294" x1="49.2759" y1="119.117" x2="-15.4834" y2="-45.6986" gradientUnits="userSpaceOnUse">
<stop/>
<stop offset="1" stop-color="white"/>
</linearGradient>
<linearGradient id="paint33_linear_535_1294" x1="49.2759" y1="119.117" x2="-15.4834" y2="-45.6986" gradientUnits="userSpaceOnUse">
<stop stop-color="#97C3F9"/>
<stop offset="1" stop-color="#93C1F9"/>
</linearGradient>
<linearGradient id="paint34_linear_535_1294" x1="73.0235" y1="109.786" x2="8.26425" y2="-55.0295" gradientUnits="userSpaceOnUse">
<stop/>
<stop offset="1" stop-color="white"/>
</linearGradient>
<linearGradient id="paint35_linear_535_1294" x1="73.0235" y1="109.786" x2="8.26425" y2="-55.0295" gradientUnits="userSpaceOnUse">
<stop stop-color="#97C3F9"/>
<stop offset="1" stop-color="#93C1F9"/>
</linearGradient>
<linearGradient id="paint36_linear_535_1294" x1="96.7712" y1="100.455" x2="32.0119" y2="-64.3606" gradientUnits="userSpaceOnUse">
<stop/>
<stop offset="1" stop-color="white"/>
</linearGradient>
<linearGradient id="paint37_linear_535_1294" x1="96.7712" y1="100.455" x2="32.0119" y2="-64.3606" gradientUnits="userSpaceOnUse">
<stop stop-color="#97C3F9"/>
<stop offset="1" stop-color="#93C1F9"/>
</linearGradient>
<linearGradient id="paint38_linear_535_1294" x1="120.519" y1="91.1236" x2="55.7595" y2="-73.6916" gradientUnits="userSpaceOnUse">
<stop/>
<stop offset="1" stop-color="white"/>
</linearGradient>
<linearGradient id="paint39_linear_535_1294" x1="120.519" y1="91.1236" x2="55.7595" y2="-73.6916" gradientUnits="userSpaceOnUse">
<stop stop-color="#97C3F9"/>
<stop offset="1" stop-color="#93C1F9"/>
</linearGradient>
<linearGradient id="paint40_linear_535_1294" x1="17.4241" y1="131.631" x2="-47.3352" y2="-33.1838" gradientUnits="userSpaceOnUse">
<stop/>
<stop offset="1" stop-color="white"/>
</linearGradient>
<linearGradient id="paint41_linear_535_1294" x1="17.4241" y1="131.631" x2="-47.3352" y2="-33.1838" gradientUnits="userSpaceOnUse">
<stop stop-color="#97C3F9"/>
<stop offset="1" stop-color="#93C1F9"/>
</linearGradient>
<linearGradient id="paint42_linear_535_1294" x1="41.1719" y1="122.3" x2="-23.5874" y2="-42.5148" gradientUnits="userSpaceOnUse">
<stop/>
<stop offset="1" stop-color="white"/>
</linearGradient>
<linearGradient id="paint43_linear_535_1294" x1="41.1719" y1="122.3" x2="-23.5874" y2="-42.5148" gradientUnits="userSpaceOnUse">
<stop stop-color="#97C3F9"/>
<stop offset="1" stop-color="#93C1F9"/>
</linearGradient>
<linearGradient id="paint44_linear_535_1294" x1="64.9195" y1="112.969" x2="0.160253" y2="-51.8456" gradientUnits="userSpaceOnUse">
<stop/>
<stop offset="1" stop-color="white"/>
</linearGradient>
<linearGradient id="paint45_linear_535_1294" x1="64.9195" y1="112.969" x2="0.160253" y2="-51.8456" gradientUnits="userSpaceOnUse">
<stop stop-color="#97C3F9"/>
<stop offset="1" stop-color="#93C1F9"/>
</linearGradient>
<linearGradient id="paint46_linear_535_1294" x1="88.6672" y1="103.638" x2="23.9079" y2="-61.1767" gradientUnits="userSpaceOnUse">
<stop/>
<stop offset="1" stop-color="white"/>
</linearGradient>
<linearGradient id="paint47_linear_535_1294" x1="88.6672" y1="103.638" x2="23.9079" y2="-61.1767" gradientUnits="userSpaceOnUse">
<stop stop-color="#97C3F9"/>
<stop offset="1" stop-color="#93C1F9"/>
</linearGradient>
<linearGradient id="paint48_linear_535_1294" x1="112.415" y1="94.3075" x2="47.6555" y2="-70.5076" gradientUnits="userSpaceOnUse">
<stop/>
<stop offset="1" stop-color="white"/>
</linearGradient>
<linearGradient id="paint49_linear_535_1294" x1="112.415" y1="94.3075" x2="47.6555" y2="-70.5076" gradientUnits="userSpaceOnUse">
<stop stop-color="#97C3F9"/>
<stop offset="1" stop-color="#93C1F9"/>
</linearGradient>
</defs>
</svg>
