<svg width="25" height="26" viewBox="0 0 25 26" fill="none" xmlns="http://www.w3.org/2000/svg">
<path d="M21.6863 17.429L19.3151 20.8283L17.6418 19.458C17.4613 19.3092 17.1939 19.3362 17.0456 19.5164C16.8969 19.6969 16.9231 19.9637 17.1045 20.1112L19.1325 21.7724C19.2087 21.835 19.3037 21.8688 19.4011 21.8688C19.4202 21.8688 19.4397 21.8676 19.4592 21.8646C19.5761 21.8485 19.6812 21.7843 19.749 21.6875L22.382 17.9122C22.5155 17.7207 22.4685 17.4573 22.2761 17.3237C22.0833 17.1888 21.8198 17.237 21.6863 17.429Z" fill="#0D7EE5"/>
<path d="M22.0339 14.9128V6.67703V2.44898C22.0339 2.21517 21.8441 2.02618 21.6102 2.02618H19.4915V0.757766C19.4915 0.523955 19.3017 0.334961 19.0678 0.334961H16.1017C15.8678 0.334961 15.678 0.523955 15.678 0.757766V2.02618H6.35593V0.757766C6.35593 0.523955 6.1661 0.334961 5.9322 0.334961H2.9661C2.7322 0.334961 2.54237 0.523955 2.54237 0.757766V2.02618H0.423729C0.189831 2.02618 0 2.21517 0 2.44898V6.67703V24.012C0 24.2458 0.189831 24.4348 0.423729 24.4348H16.5695C17.4178 24.9676 18.4178 25.2804 19.4915 25.2804C22.5288 25.2804 25 22.8146 25 19.784C25 17.6687 23.7941 15.8312 22.0339 14.9128ZM16.5254 1.18057H18.6441V2.44898V3.7174H16.5254V2.44898V1.18057ZM3.38983 1.18057H5.50847V2.44898V3.7174H3.38983V2.44898V1.18057ZM0.847458 2.87179H2.54237V4.1402C2.54237 4.37401 2.7322 4.56301 2.9661 4.56301H5.9322C6.1661 4.56301 6.35593 4.37401 6.35593 4.1402V2.87179H15.678V4.1402C15.678 4.37401 15.8678 4.56301 16.1017 4.56301H19.0678C19.3017 4.56301 19.4915 4.37401 19.4915 4.1402V2.87179H21.1864V6.25423H0.847458V2.87179ZM0.847458 23.5892V7.09984H21.1864V14.5564C21.1034 14.5298 21.0186 14.5082 20.9339 14.485C20.8555 14.4634 20.7771 14.4423 20.6979 14.4241C20.6263 14.408 20.5538 14.3941 20.4814 14.381C20.378 14.3619 20.2742 14.3463 20.1699 14.3332C20.1119 14.326 20.0542 14.318 19.9958 14.3125C19.8288 14.2977 19.6606 14.2875 19.4915 14.2875C19.3483 14.2875 19.2081 14.2981 19.0678 14.3091V13.8647V13.0191V9.21386H15.2542H14.4068H11.4407H10.5932H7.62712H6.77966H2.9661V13.0191V13.8647V16.8243V17.67V21.4752H6.77966H7.62712H10.5932H11.4407H14.2525C14.2648 21.5124 14.2801 21.5483 14.2928 21.5851C14.3284 21.6879 14.3636 21.791 14.4055 21.8912C14.4288 21.9475 14.4564 22.0012 14.4818 22.0561C14.5305 22.1635 14.5801 22.2705 14.6356 22.3745C14.6602 22.4197 14.6877 22.4633 14.7136 22.5081C14.7763 22.6176 14.8398 22.7259 14.9102 22.8307C14.936 22.8692 14.9644 22.9055 14.9911 22.9436C15.0657 23.0493 15.1419 23.1542 15.2246 23.2548C15.2551 23.292 15.2881 23.3267 15.3195 23.363C15.3852 23.4391 15.4479 23.5169 15.5178 23.5896L0.847458 23.5892ZM17.0818 14.849C17.036 14.871 16.9894 14.8917 16.9445 14.915C16.8648 14.9564 16.7877 15.0021 16.7106 15.0473C16.6432 15.0866 16.5758 15.1268 16.5102 15.1686C16.4436 15.2118 16.3788 15.2557 16.3144 15.3014C16.2411 15.353 16.1699 15.4071 16.0992 15.4621C16.0424 15.5065 15.9856 15.5504 15.9309 15.5974C15.8568 15.6599 15.786 15.7263 15.7153 15.7927C15.6665 15.8388 15.6161 15.8832 15.5691 15.9305C15.4924 16.0083 15.4199 16.0908 15.3479 16.1732C15.3174 16.2083 15.2839 16.2404 15.2538 16.2764V13.8647H18.2199V14.4406C18.2127 14.4423 18.2059 14.4448 18.1992 14.4465C17.8089 14.5408 17.4352 14.6765 17.0818 14.849ZM14.2246 18.1769C14.2097 18.2255 14.2 18.2754 14.1864 18.3245C14.1525 18.4471 14.1178 18.5697 14.0924 18.6961C14.0725 18.7938 14.0614 18.8935 14.047 18.9925C14.0356 19.0724 14.0195 19.151 14.011 19.2322C13.9928 19.4144 13.9831 19.5988 13.9831 19.784C13.9831 19.9366 13.9915 20.0909 14.0055 20.2457C14.0081 20.274 14.0081 20.3028 14.011 20.3311C14.0178 20.3996 14.0314 20.466 14.0407 20.5336C14.0453 20.5657 14.047 20.5979 14.0521 20.6296H11.4407V17.67H14.4068V17.6729C14.4025 17.6831 14.4 17.6936 14.3958 17.7038C14.3322 17.8581 14.2742 18.0158 14.2246 18.1769ZM3.81356 17.67H6.77966V20.6296H3.81356V17.67ZM3.81356 13.8647H6.77966V16.8243H3.81356V13.8647ZM18.2203 13.0191H15.2542V10.0595H18.2203V13.0191ZM14.4068 13.0191H11.4407V10.0595H14.4068V13.0191ZM14.4068 16.8243H11.4407V13.8647H14.4068V16.8243ZM7.62712 13.8647H10.5932V16.8243H7.62712V13.8647ZM10.5932 13.0191H7.62712V10.0595H10.5932V13.0191ZM6.77966 13.0191H3.81356V10.0595H6.77966V13.0191ZM7.62712 17.67H10.5932V20.6296H7.62712V17.67ZM19.4915 24.4348C18.5347 24.4348 17.6445 24.1448 16.9038 23.6493C16.7593 23.5529 16.6229 23.448 16.492 23.3381C16.4462 23.2992 16.403 23.2577 16.3589 23.2171C16.2754 23.1415 16.1945 23.0637 16.1174 22.9829C16.0678 22.9309 16.0199 22.8781 15.9729 22.8244C15.9034 22.7445 15.8381 22.662 15.7746 22.5779C15.7339 22.5242 15.692 22.4722 15.6534 22.4168C15.5597 22.2811 15.4716 22.1415 15.3928 21.9969C15.3746 21.9631 15.3602 21.9276 15.3428 21.8933C15.2809 21.7724 15.2233 21.6498 15.172 21.5238C15.15 21.4689 15.1309 21.4126 15.1106 21.3568C15.0708 21.246 15.0343 21.1336 15.0025 21.0198C14.9953 20.9936 14.989 20.9674 14.9822 20.9412C14.9343 20.7552 14.8992 20.5704 14.8742 20.3865C14.8725 20.3734 14.8699 20.3603 14.8682 20.3467C14.8436 20.1569 14.8305 19.9687 14.8305 19.784C14.8305 19.6237 14.8386 19.4648 14.8551 19.3071C14.8564 19.2939 14.8597 19.2813 14.861 19.2682C14.8771 19.124 14.8983 18.9802 14.928 18.8386C14.9309 18.8251 14.9356 18.8119 14.9386 18.7984C14.9691 18.658 15.0051 18.5185 15.0487 18.3807C15.0538 18.3646 15.061 18.349 15.0661 18.3329C15.1097 18.201 15.1581 18.0699 15.214 17.9414C15.2665 17.8205 15.3233 17.7017 15.3856 17.5862L15.4275 17.5139C15.4445 17.4835 15.4644 17.4547 15.4822 17.4247C15.5559 17.3008 15.6347 17.1808 15.7182 17.0649C15.739 17.0362 15.7606 17.0078 15.7822 16.9795C15.8585 16.8789 15.939 16.7821 16.0229 16.6886C16.0521 16.6561 16.0814 16.6231 16.1114 16.5914C16.1945 16.5034 16.2818 16.4201 16.3712 16.3394C16.403 16.3106 16.4339 16.281 16.4665 16.2531C16.5716 16.1635 16.6805 16.0794 16.7928 15.9995C16.8106 15.9868 16.8275 15.9728 16.8453 15.9601C17.3983 15.5788 18.0335 15.3175 18.7148 15.2033L18.7237 15.202C18.9737 15.1602 19.2292 15.1331 19.4915 15.1331C19.6564 15.1331 19.8203 15.142 19.9831 15.1598C20.0085 15.1623 20.0331 15.1682 20.0585 15.1712C20.1975 15.1885 20.336 15.2092 20.4729 15.2388C20.4898 15.2426 20.5059 15.2477 20.5225 15.2515C20.6682 15.2849 20.8127 15.3238 20.9555 15.3716C20.9653 15.375 20.9746 15.3788 20.9843 15.3822C21.1305 15.432 21.2746 15.4891 21.4174 15.5538C23.0284 16.287 24.1525 17.9055 24.1525 19.784C24.1525 22.3483 22.0614 24.4348 19.4915 24.4348Z" fill="#0D7EE5"/>
</svg>
