<svg width="25" height="26" viewBox="0 0 25 26" fill="none" xmlns="http://www.w3.org/2000/svg">
<path d="M21.5887 17.7197C21.423 17.5544 21.1552 17.5544 20.9896 17.7197L19.4912 19.2147L17.9929 17.7197C17.8273 17.5544 17.5595 17.5544 17.3938 17.7197C17.2281 17.885 17.2281 18.1522 17.3938 18.3175L18.8921 19.8126L17.3938 21.3076C17.2281 21.4729 17.2281 21.7401 17.3938 21.9055C17.4764 21.9879 17.5849 22.0293 17.6934 22.0293C17.8018 22.0293 17.9103 21.9879 17.9929 21.9055L19.4912 20.4104L20.9896 21.9055C21.0722 21.9879 21.1807 22.0293 21.2891 22.0293C21.3976 22.0293 21.5061 21.9879 21.5887 21.9055C21.7544 21.7401 21.7544 21.4729 21.5887 21.3076L20.0904 19.8126L21.5887 18.3175C21.754 18.1522 21.754 17.885 21.5887 17.7197Z" fill="#0D7EE5"/>
<path d="M22.0339 14.908V6.67215V2.4441C22.0339 2.21029 21.8441 2.0213 21.6102 2.0213H19.4915V0.752883C19.4915 0.519072 19.3017 0.330078 19.0678 0.330078H16.1017C15.8678 0.330078 15.678 0.519072 15.678 0.752883V2.0213H6.35593V0.752883C6.35593 0.519072 6.1661 0.330078 5.9322 0.330078H2.9661C2.7322 0.330078 2.54237 0.519072 2.54237 0.752883V2.0213H0.423729C0.189831 2.0213 0 2.21029 0 2.4441V6.67215V24.0071C0 24.2409 0.189831 24.4299 0.423729 24.4299H16.5695C17.4178 24.9627 18.4178 25.2756 19.4915 25.2756C22.5288 25.2756 25 22.8098 25 19.7791C25 17.6638 23.7941 15.8263 22.0339 14.908ZM16.5254 1.17569H18.6441V2.4441V3.71252H16.5254V2.4441V1.17569ZM3.38983 1.17569H5.50847V2.4441V3.71252H3.38983V2.4441V1.17569ZM0.847458 2.86691H2.54237V4.13532C2.54237 4.36913 2.7322 4.55812 2.9661 4.55812H5.9322C6.1661 4.55812 6.35593 4.36913 6.35593 4.13532V2.86691H15.678V4.13532C15.678 4.36913 15.8678 4.55812 16.1017 4.55812H19.0678C19.3017 4.55812 19.4915 4.36913 19.4915 4.13532V2.86691H21.1864V6.24934H0.847458V2.86691ZM0.847458 23.5843V7.09495H21.1864V14.5515C21.1034 14.5249 21.0186 14.5033 20.9339 14.4801C20.8555 14.4585 20.7771 14.4374 20.6979 14.4192C20.6263 14.4031 20.5538 14.3892 20.4814 14.3761C20.378 14.357 20.2742 14.3414 20.1699 14.3283C20.1119 14.3211 20.0542 14.3131 19.9958 14.3076C19.8288 14.2928 19.6606 14.2826 19.4915 14.2826C19.3483 14.2826 19.2081 14.2932 19.0678 14.3042V13.8598V13.0142V9.20898H15.2542H14.4068H11.4407H10.5932H7.62712H6.77966H2.9661V13.0142V13.8598V16.8195V17.6651V21.4703H6.77966H7.62712H10.5932H11.4407H14.2525C14.2648 21.5075 14.2801 21.5435 14.2928 21.5802C14.3284 21.683 14.3636 21.7861 14.4055 21.8864C14.4288 21.9426 14.4564 21.9963 14.4818 22.0512C14.5305 22.1586 14.5801 22.2656 14.6356 22.3696C14.6602 22.4149 14.6877 22.4584 14.7136 22.5032C14.7763 22.6127 14.8398 22.721 14.9102 22.8258C14.936 22.8643 14.9644 22.9007 14.9911 22.9387C15.0657 23.0444 15.1419 23.1493 15.2246 23.2499C15.2551 23.2871 15.2881 23.3218 15.3195 23.3581C15.3852 23.4342 15.4479 23.512 15.5178 23.5848L0.847458 23.5843ZM17.0818 14.8441C17.036 14.8661 16.9894 14.8868 16.9445 14.9101C16.8648 14.9515 16.7877 14.9972 16.7106 15.0424C16.6432 15.0817 16.5758 15.1219 16.5102 15.1638C16.4436 15.2069 16.3788 15.2509 16.3144 15.2965C16.2411 15.3481 16.1699 15.4022 16.0992 15.4572C16.0424 15.5016 15.9856 15.5455 15.9309 15.5925C15.8568 15.6551 15.786 15.7214 15.7153 15.7878C15.6665 15.8339 15.6161 15.8783 15.5691 15.9257C15.4924 16.0034 15.4199 16.0859 15.3479 16.1683C15.3174 16.2034 15.2839 16.2356 15.2538 16.2715V13.8598H18.2199V14.4357C18.2127 14.4374 18.2059 14.4399 18.1992 14.4416C17.8089 14.5359 17.4352 14.6716 17.0818 14.8441ZM14.2246 18.172C14.2097 18.2206 14.2 18.2705 14.1864 18.3196C14.1525 18.4422 14.1178 18.5648 14.0924 18.6912C14.0725 18.7889 14.0614 18.8887 14.047 18.9876C14.0356 19.0675 14.0195 19.1462 14.011 19.2273C13.9928 19.4096 13.9831 19.5939 13.9831 19.7791C13.9831 19.9317 13.9915 20.086 14.0055 20.2408C14.0081 20.2691 14.0081 20.2979 14.011 20.3262C14.0178 20.3947 14.0314 20.4611 14.0407 20.5287C14.0453 20.5609 14.047 20.593 14.0521 20.6247H11.4407V17.6651H14.4068V17.668C14.4025 17.6782 14.4 17.6887 14.3958 17.6989C14.3322 17.8532 14.2742 18.0109 14.2246 18.172ZM3.81356 17.6651H6.77966V20.6247H3.81356V17.6651ZM3.81356 13.8598H6.77966V16.8195H3.81356V13.8598ZM18.2203 13.0142H15.2542V10.0546H18.2203V13.0142ZM14.4068 13.0142H11.4407V10.0546H14.4068V13.0142ZM14.4068 16.8195H11.4407V13.8598H14.4068V16.8195ZM7.62712 13.8598H10.5932V16.8195H7.62712V13.8598ZM10.5932 13.0142H7.62712V10.0546H10.5932V13.0142ZM6.77966 13.0142H3.81356V10.0546H6.77966V13.0142ZM7.62712 17.6651H10.5932V20.6247H7.62712V17.6651ZM19.4915 24.4299C18.5347 24.4299 17.6445 24.1399 16.9038 23.6444C16.7593 23.548 16.6229 23.4431 16.492 23.3332C16.4462 23.2943 16.403 23.2529 16.3589 23.2123C16.2754 23.1366 16.1945 23.0588 16.1174 22.978C16.0678 22.926 16.0199 22.8732 15.9729 22.8195C15.9034 22.7396 15.8381 22.6571 15.7746 22.573C15.7339 22.5193 15.692 22.4673 15.6534 22.4119C15.5597 22.2762 15.4716 22.1367 15.3928 21.9921C15.3746 21.9582 15.3602 21.9227 15.3428 21.8885C15.2809 21.7675 15.2233 21.6449 15.172 21.5189C15.15 21.464 15.1309 21.4077 15.1106 21.3519C15.0708 21.2412 15.0343 21.1287 15.0025 21.015C14.9953 20.9887 14.989 20.9625 14.9822 20.9363C14.9343 20.7503 14.8992 20.5655 14.8742 20.3816C14.8725 20.3685 14.8699 20.3554 14.8682 20.3418C14.8436 20.152 14.8305 19.9639 14.8305 19.7791C14.8305 19.6188 14.8386 19.4599 14.8551 19.3022C14.8564 19.2891 14.8597 19.2764 14.861 19.2633C14.8771 19.1191 14.8983 18.9753 14.928 18.8337C14.9309 18.8202 14.9356 18.8071 14.9386 18.7935C14.9691 18.6532 15.0051 18.5136 15.0487 18.3758C15.0538 18.3597 15.061 18.3441 15.0661 18.328C15.1097 18.1961 15.1581 18.065 15.214 17.9365C15.2665 17.8156 15.3233 17.6968 15.3856 17.5814L15.4275 17.5091C15.4445 17.4786 15.4644 17.4499 15.4822 17.4198C15.5559 17.296 15.6347 17.1759 15.7182 17.06C15.739 17.0313 15.7606 17.003 15.7822 16.9746C15.8585 16.874 15.939 16.7772 16.0229 16.6837C16.0521 16.6512 16.0814 16.6182 16.1114 16.5865C16.1945 16.4986 16.2818 16.4153 16.3712 16.3345C16.403 16.3058 16.4339 16.2762 16.4665 16.2482C16.5716 16.1586 16.6805 16.0745 16.7928 15.9946C16.8106 15.9819 16.8275 15.9679 16.8453 15.9552C17.3983 15.5739 18.0335 15.3126 18.7148 15.1984L18.7237 15.1972C18.9737 15.1553 19.2292 15.1282 19.4915 15.1282C19.6564 15.1282 19.8203 15.1371 19.9831 15.1549C20.0085 15.1574 20.0331 15.1633 20.0585 15.1663C20.1975 15.1836 20.336 15.2043 20.4729 15.2339C20.4898 15.2377 20.5059 15.2428 20.5225 15.2466C20.6682 15.28 20.8127 15.3189 20.9555 15.3667C20.9653 15.3701 20.9746 15.3739 20.9843 15.3773C21.1305 15.4272 21.2746 15.4842 21.4174 15.5489C23.0284 16.2821 24.1525 17.9006 24.1525 19.7791C24.1525 22.3434 22.0614 24.4299 19.4915 24.4299Z" fill="#0D7EE5"/>
</svg>
