<svg width="21" height="30" viewBox="0 0 21 30" fill="none" xmlns="http://www.w3.org/2000/svg">
<path d="M10.2503 6.80273C8.20648 6.80273 6.54297 8.46262 6.54297 10.5019C6.54297 12.5413 8.20648 14.2011 10.2503 14.2011C12.294 14.2011 13.9575 12.5413 13.9575 10.5019C13.9575 8.46262 12.294 6.80273 10.2503 6.80273ZM10.2503 13.1442C8.79012 13.1442 7.60219 11.9589 7.60219 10.5019C7.60219 9.04498 8.79012 7.85965 10.2503 7.85965C11.7104 7.85965 12.8983 9.04498 12.8983 10.5019C12.8983 11.9589 11.7104 13.1442 10.2503 13.1442Z" fill="#0D7EE5"/>
<path d="M17.3382 3.42928C15.4199 1.51521 12.8693 0.460938 10.1566 0.460938C7.44341 0.460938 4.89333 1.51521 2.97507 3.42928C-0.574922 6.97101 -1.01609 13.6349 2.01965 17.6723L10.1566 29.3977L18.2814 17.6887C21.3293 13.6349 20.8882 6.97101 17.3382 3.42928ZM17.4224 17.0709L10.1566 27.5407L2.87921 17.0545C0.125756 13.3912 0.520317 7.37316 3.72447 4.17652C5.44254 2.46221 7.72676 1.51785 10.1566 1.51785C12.5865 1.51785 14.8707 2.46221 16.5893 4.17652C19.7935 7.37316 20.188 13.3912 17.4224 17.0709Z" fill="#0D7EE5"/>
</svg>
