<svg width="19" height="26" viewBox="0 0 19 26" fill="none" xmlns="http://www.w3.org/2000/svg">
<path d="M16.4062 3.68262H12.5C12.5 1.95898 11.0986 0.557617 9.375 0.557617C7.65137 0.557617 6.25 1.95898 6.25 3.68262H2.34375C1.0498 3.68262 0 4.73242 0 6.02637V23.2139C0 24.5078 1.0498 25.5576 2.34375 25.5576H16.4062C17.7002 25.5576 18.75 24.5078 18.75 23.2139V6.02637C18.75 4.73242 17.7002 3.68262 16.4062 3.68262ZM4.6875 21.2607C4.03809 21.2607 3.51562 20.7383 3.51562 20.0889C3.51562 19.4395 4.03809 18.917 4.6875 18.917C5.33691 18.917 5.85938 19.4395 5.85938 20.0889C5.85938 20.7383 5.33691 21.2607 4.6875 21.2607ZM4.6875 16.5732C4.03809 16.5732 3.51562 16.0508 3.51562 15.4014C3.51562 14.752 4.03809 14.2295 4.6875 14.2295C5.33691 14.2295 5.85938 14.752 5.85938 15.4014C5.85938 16.0508 5.33691 16.5732 4.6875 16.5732ZM4.6875 11.8857C4.03809 11.8857 3.51562 11.3633 3.51562 10.7139C3.51562 10.0645 4.03809 9.54199 4.6875 9.54199C5.33691 9.54199 5.85938 10.0645 5.85938 10.7139C5.85938 11.3633 5.33691 11.8857 4.6875 11.8857ZM9.375 2.51074C10.0244 2.51074 10.5469 3.0332 10.5469 3.68262C10.5469 4.33203 10.0244 4.85449 9.375 4.85449C8.72559 4.85449 8.20312 4.33203 8.20312 3.68262C8.20312 3.0332 8.72559 2.51074 9.375 2.51074ZM15.625 20.4795C15.625 20.6943 15.4492 20.8701 15.2344 20.8701H8.20312C7.98828 20.8701 7.8125 20.6943 7.8125 20.4795V19.6982C7.8125 19.4834 7.98828 19.3076 8.20312 19.3076H15.2344C15.4492 19.3076 15.625 19.4834 15.625 19.6982V20.4795ZM15.625 15.792C15.625 16.0068 15.4492 16.1826 15.2344 16.1826H8.20312C7.98828 16.1826 7.8125 16.0068 7.8125 15.792V15.0107C7.8125 14.7959 7.98828 14.6201 8.20312 14.6201H15.2344C15.4492 14.6201 15.625 14.7959 15.625 15.0107V15.792ZM15.625 11.1045C15.625 11.3193 15.4492 11.4951 15.2344 11.4951H8.20312C7.98828 11.4951 7.8125 11.3193 7.8125 11.1045V10.3232C7.8125 10.1084 7.98828 9.93262 8.20312 9.93262H15.2344C15.4492 9.93262 15.625 10.1084 15.625 10.3232V11.1045Z" fill="white"/>
</svg>
