<svg width="14" height="10" viewBox="0 0 14 10" fill="none" xmlns="http://www.w3.org/2000/svg">
<path d="M11.9 0.538086H2.1C1.54305 0.538086 1.0089 0.715079 0.615076 1.03013C0.221249 1.34518 0 1.77248 0 2.21802V7.81782C0 8.26336 0.221249 8.69066 0.615076 9.00571C1.0089 9.32076 1.54305 9.49775 2.1 9.49775H11.9C12.457 9.49775 12.9911 9.32076 13.3849 9.00571C13.7788 8.69066 14 8.26336 14 7.81782V2.21802C14 1.77248 13.7788 1.34518 13.3849 1.03013C12.9911 0.715079 12.457 0.538086 11.9 0.538086ZM2.1 1.65804H11.9C12.0857 1.65804 12.2637 1.71704 12.395 1.82206C12.5263 1.92708 12.6 2.06951 12.6 2.21802L7 4.95072L1.4 2.21802C1.4 2.06951 1.47375 1.92708 1.60503 1.82206C1.7363 1.71704 1.91435 1.65804 2.1 1.65804ZM12.6 7.81782C12.6 7.96633 12.5263 8.10876 12.395 8.21378C12.2637 8.3188 12.0857 8.37779 11.9 8.37779H2.1C1.91435 8.37779 1.7363 8.3188 1.60503 8.21378C1.47375 8.10876 1.4 7.96633 1.4 7.81782V3.49478L6.636 6.05388C6.74241 6.10303 6.86312 6.1289 6.986 6.1289C7.10888 6.1289 7.22959 6.10303 7.336 6.05388L12.6 3.49478V7.81782Z" fill="white"/>
</svg>
